<?xml version="1.0" encoding="utf-8"?>
<!-- Generator: Adobe Illustrator 26.0.3, SVG Export Plug-In . SVG Version: 6.00 Build 0)  -->
<svg version="1.1" id="Layer_1" xmlns="http://www.w3.org/2000/svg" xmlns:xlink="http://www.w3.org/1999/xlink" x="0px" y="0px"
	 viewBox="0 0 1000 154.8" style="enable-background:new 0 0 1000 154.8;" xml:space="preserve">
<style type="text/css">
	.st0{fill:#67DBB8;}
	.st1{fill:#343533;}
</style>
<g>
	<g>
		<path class="st0" d="M111.6,0H2.7C0.6,0-0.7,2.3,0.4,4.1l26.6,46l3.2,5.5c3.1,5.4,4.5,11.5,4.2,17.7c0,1.4-0.1,2.7-0.1,4.1
			c0,42.7,34.6,77.4,77.4,77.4c42.7,0,77.4-34.7,77.4-77.4c0-1.4,0-2.8-0.1-4.1C186.8,32.5,153,0,111.6,0z M111.6,142.5
			c-35.9,0-65.1-29.2-65.1-65.1c0-1.2,0-2.5,0.1-3.6c0.4-8.6-1.7-17-5.8-24.3L37.6,44L19.3,12.3h92.4c34.6,0,63.2,27,65,61.5
			c0,1.2,0.1,2.4,0.1,3.6C176.8,113.3,147.5,142.5,111.6,142.5z"/>
	</g>
	<path class="st0" d="M220.5,0h-65.1c19.2,10.9,34,28.8,40.9,50.1l26.6-46C223.9,2.3,222.6,0,220.5,0z"/>
	<circle class="st0" cx="87.3" cy="77.4" r="11.2"/>
	<path class="st0" d="M135.9,66.2c-6.2,0-11.2,5-11.2,11.2c0,6.2,5,11.2,11.2,11.2s11.2-5,11.2-11.2
		C147.1,71.2,142.1,66.2,135.9,66.2z"/>
	<path class="st1" d="M263.9,124.9l8.5-19.2c1-2.1,3.5-3,5.6-1.9c10.9,6.2,25,10.2,38.2,10.2c14.9,0,20.7-4.2,20.7-10.3
		c0-20.1-72.2-5.4-72.2-52.6c0-22.7,18.5-41.2,56.2-41.2c15.1,0,30.7,3.2,42.9,9.3c1.8,0.9,2.6,3.2,1.8,5.1l-8,19.3
		c-0.9,2.2-3.4,3-5.5,2c-10.8-5.2-21.4-7.8-31.3-7.8c-15.1,0-20.5,5.1-20.5,11.4c0,19.4,72,4.9,72,51.7c0,22.1-18.5,41-56.2,41
		c-19.2,0-38.2-4.8-50.4-12C263.8,129,263.1,126.8,263.9,124.9z"/>
	<path class="st1" d="M456.7,135.5c-6,3.8-14.9,5.6-23.9,5.6c-25.2,0-39.9-12.3-39.9-37.5v-33h-14.3V44.9h14.3V28.5
		c0-5.1,4.1-9.2,9.2-9.2h25.2v25.6h22.5v25.7h-22.5v32.6c0,7.3,4.2,11.2,10.3,11.2c3.8,0,7.6-1.1,10.5-3.1L456.7,135.5z"/>
	<path class="st1" d="M575,47.9v91.6h-32.8V129c-7.4,8.2-18,12.1-29.2,12.1c-24.1,0-41.7-13.8-41.7-45V47.9c0-3.7,3-6.7,6.7-6.7
		h21.1c3.7,0,6.7,3,6.7,6.7v42.6c0,15.2,6,21.2,16.3,21.2c10.2,0,18.5-6.7,18.5-23.2V47.9c0-3.7,3-6.7,6.7-6.7h21.1
		C572,41.3,575,44.2,575,47.9z"/>
	<path class="st1" d="M703.4,10.1v129.5h-32.8v-9.8c-6.5,7.8-16.1,11.4-28.8,11.4c-26.8,0-48.4-19.6-48.4-51
		c0-31.2,21.6-50.6,48.4-50.6c11.4,0,20.7,3.3,27.2,10.2V10.1c0-2.8,2.3-5.1,5.1-5.1h24.3C701.1,5,703.4,7.3,703.4,10.1z
		 M669.5,90.2c0-14.9-8.9-23.2-20.5-23.2c-11.8,0-20.7,8.3-20.7,23.2c0,15.1,8.9,23.6,20.7,23.6C660.6,113.8,669.5,105.3,669.5,90.2
		z"/>
	<path class="st0" d="M911.7,99.1h-69.2c2.9,10,11.4,15.8,24.1,15.8c9.6,0,16-2.7,22.7-8.5l18.1,18.9c-9.4,10.5-23.2,16-41.9,16
		c-35,0-57.7-21.6-57.7-51c0-29.6,23-50.6,54-50.6c29,0,52.6,18.5,52.6,51c0,1.9-0.2,4.1-0.4,6.3C914,98.1,912.9,99.1,911.7,99.1z
		 M841.9,81h40.3c-1.8-10.3-9.4-16.9-20.1-16.9C851.3,64.1,843.9,70.6,841.9,81z"/>
	<path class="st0" d="M1000,135.5c-6,3.8-14.9,5.6-23.9,5.6c-25.2,0-39.9-12.3-39.9-37.5v-33h-14.3V44.9h14.3V28.5
		c0-5.1,4.1-9.2,9.2-9.2h25.2v25.6h22.5v25.7h-22.5v32.6c0,7.3,4.2,11.2,10.3,11.2c3.8,0,7.6-1.1,10.5-3.1L1000,135.5z"/>
	<path class="st0" d="M783.4,5h-25c-2.8,0-5.1,2.3-5.1,5.1v64.1c0,0.8-1,1.2-1.5,0.5l-29.3-37.4c-0.6-0.8-1.9-0.4-1.9,0.7v52.1
		c0,0.2,0.1,0.5,0.2,0.7l38.1,48.8h29.6V10.1C788.5,7.3,786.2,5,783.4,5z"/>
</g>
</svg>
